<?xml version="1.0" standalone="no"?>
<!DOCTYPE svg PUBLIC "-//W3C//DTD SVG 1.1//EN"
"http://www.w3.org/Graphics/SVG/1.1/DTD/svg11.dtd">

<svg width="320" height="193" viewBox="0 0 320 193"
xmlns="http://www.w3.org/2000/svg"
xmlns:link="http://www.w3.org/1999/xlink">

<desc>Generated by Mocodo 1.5 on Fri, 21 Mar 2014 17:30:17</desc>

<rect x="0" y="0" width="320" height="193" fill="none" stroke="none" stroke-width="0"/>

<!-- Association JOUE -->
<line x1="56" y1="51" x2="155" y2="51" stroke="#726f83" stroke-width="1"/>
<text x="108" y="67.05" fill="#726f83" font-family="Liberation Serif" font-size="12">0,N</text>
<line x1="259" y1="150" x2="155" y2="51" stroke="#726f83" stroke-width="1"/>
<text x="214" y="140.348076923" fill="#726f83" font-family="Liberation Serif" font-size="12">0,N</text>
<line x1="259" y1="51" x2="155" y2="51" stroke="#726f83" stroke-width="1"/>
<text x="184" y="67.05" fill="#726f83" font-family="Liberation Serif" font-size="12">0,N</text>
<g id="association-JOUE">
	<path d="M 165 26 a 14 14 90 0 1 14 14 V 51 h -48 V 40 a 14 14 90 0 1 14 -14" fill="#b2bba4" stroke="#b2bba4" stroke-width="0"/>
	<path d="M 179 51 v 11 a 14 14 90 0 1 -14 14 H 145 a 14 14 90 0 1 -14 -14 V 51 H 48" fill="#ccd6ba" stroke="#ccd6ba" stroke-width="0"/>
	<rect x="131" y="26" width="48" height="50" fill="none" rx="14" stroke="#85956b" stroke-width="1.5"/>
	<line x1="131" y1="51" x2="179" y2="51" stroke="#85956b" stroke-width="1"/>
	<text x="138" y="43.75" fill="#27360c" font-family="Liberation Serif" font-size="14">JOUE</text>
</g>

<!-- Association REALISE -->
<line x1="56" y1="51" x2="155" y2="150" stroke="#726f83" stroke-width="1"/>
<text x="121.0" y="109.05" fill="#726f83" font-family="Liberation Serif" font-size="12">0,N</text>
<line x1="259" y1="150" x2="155" y2="150" stroke="#726f83" stroke-width="1"/>
<text x="214" y="166.05" fill="#726f83" font-family="Liberation Serif" font-size="12">1,1</text>
<g id="association-REALISE">
	<path d="M 177 125 a 14 14 90 0 1 14 14 V 150 h -72 V 139 a 14 14 90 0 1 14 -14" fill="#b2bba4" stroke="#b2bba4" stroke-width="0"/>
	<path d="M 191 150 v 11 a 14 14 90 0 1 -14 14 H 133 a 14 14 90 0 1 -14 -14 V 150 H 72" fill="#ccd6ba" stroke="#ccd6ba" stroke-width="0"/>
	<rect x="119" y="125" width="72" height="50" fill="none" rx="14" stroke="#85956b" stroke-width="1.5"/>
	<line x1="119" y1="150" x2="191" y2="150" stroke="#85956b" stroke-width="1"/>
	<text x="126" y="142.75" fill="#27360c" font-family="Liberation Serif" font-size="14">REALISE</text>
</g>

<!-- Entity PERSONNAGE -->
<g id="entity-PERSONNAGE">
	<g id="frame-PERSONNAGE">
		<rect x="207" y="26" width="104" height="25" fill="#97b8ff" stroke="#97b8ff" stroke-width="0"/>
		<rect x="207" y="51" width="104" height="25" fill="#c0d4ff" stroke="#c0d4ff" stroke-width="0"/>
		<rect x="207" y="26" width="104" height="50" fill="none" stroke="#578dff" stroke-width="1.5"/>
		<line x1="207" y1="51" x2="311" y2="51" stroke="#578dff" stroke-width="1"/>
	</g>
	<text x="212" y="43.75" fill="#131114" font-family="Liberation Serif" font-size="14">PERSONNAGE</text>
	<text x="212" y="68.75" fill="#3e3c42" font-family="Liberation Serif" font-size="14">nom</text>
	<line x1="212" y1="71.0" x2="237" y2="71.0" stroke="#3e3c42" stroke-width="1"/>
</g>

<!-- Entity PERSONNE -->
<g id="entity-PERSONNE">
	<g id="frame-PERSONNE">
		<rect x="9" y="9" width="94" height="25" fill="#97b8ff" stroke="#97b8ff" stroke-width="0"/>
		<rect x="9" y="34" width="94" height="59" fill="#c0d4ff" stroke="#c0d4ff" stroke-width="0"/>
		<rect x="9" y="9" width="94" height="84" fill="none" stroke="#578dff" stroke-width="1.5"/>
		<line x1="9" y1="34" x2="103" y2="34" stroke="#578dff" stroke-width="1"/>
	</g>
	<text x="20" y="26.75" fill="#131114" font-family="Liberation Serif" font-size="14">PERSONNE</text>
	<text x="14" y="51.75" fill="#3e3c42" font-family="Liberation Serif" font-size="14">nom</text>
	<line x1="14" y1="54.0" x2="39" y2="54.0" stroke="#3e3c42" stroke-width="1"/>
	<text x="14" y="68.75" fill="#3e3c42" font-family="Liberation Serif" font-size="14">prenom</text>
	<text x="14" y="85.75" fill="#3e3c42" font-family="Liberation Serif" font-size="14">date_naissance</text>
</g>

<!-- Entity FILM -->
<g id="entity-FILM">
	<g id="frame-FILM">
		<rect x="237" y="116" width="44" height="25" fill="#97b8ff" stroke="#97b8ff" stroke-width="0"/>
		<rect x="237" y="141" width="44" height="43" fill="#c0d4ff" stroke="#c0d4ff" stroke-width="0"/>
		<rect x="237" y="116" width="44" height="68" fill="none" stroke="#578dff" stroke-width="1.5"/>
		<line x1="237" y1="141" x2="281" y2="141" stroke="#578dff" stroke-width="1"/>
	</g>
	<text x="242" y="133.75" fill="#131114" font-family="Liberation Serif" font-size="14">FILM</text>
	<text x="242" y="158.75" fill="#3e3c42" font-family="Liberation Serif" font-size="14">titre</text>
	<line x1="242" y1="161.0" x2="265" y2="161.0" stroke="#3e3c42" stroke-width="1"/>
	<text x="242" y="175.75" fill="#3e3c42" font-family="Liberation Serif" font-size="14">date</text>
</g>
</svg>